<svg xmlns="http://www.w3.org/2000/svg" xmlns:xlink="http://www.w3.org/1999/xlink" width="208" height="55" viewBox="0 0 208 55">
    <defs>
        <path id="a" d="M0 .564v11.139h9.406V.564H0z"/>
        <path id="c" d="M9.762 11.703V.564H.252v11.139h9.51z"/>
    </defs>
    <g fill="none" fill-rule="evenodd">
        <path fill="#FFF" d="M61.134 53.175l1.053-16.384h-1.928zM40.644 12.954l8.71 7.118h2.43zM62.672 20.072h2.134L70.053 0zM53.611 4.517l4.054 15.555h2.105zM44.053 4.517l10.35 15.555h2.354zM83.642 44.219l-9.156-7.428h-2.238zM75.371 8.825l-9.6 11.247h2.26zM82.517 12.433l-11.865 7.64h2.485zM60.2 20.072h2.068L61.235.116zM57.365 36.791L52.677 54.31 59.37 36.79zM63.098 36.791l6.695 17.518-4.689-17.518zM75.258 47.146l-6.59-10.355h-2.033zM40.696 43.027l9.543-6.236h-2.063zM46.908 47.85l8.982-11.058H53.84zM83.245 22.658c.363 0 .602.3.53.665l-.143.71c-.073.365-.432.665-.796.665H79.68a.674.674 0 0 0-.663.679v.96c0 .373.298.678.663.678h2.809c.365 0 .663.305.663.677v.683c0 .374-.298.68-.663.68h-2.81a.673.673 0 0 0-.662.678v1.346c0 .374.298.678.663.678h3.277c.366 0 .724.3.795.665l.143.71c.073.365-.165.665-.53.665H77.02a.672.672 0 0 1-.66-.679v-9.78c0-.372.296-.68.66-.68h6.224zm-10.907 2.464l-.544.47s-.415.35-1.048-.268a3.157 3.157 0 0 0-.185-.183c-.587-.541-1.376-.767-2.326-.767-1.404 0-2.218.448-2.218 1.189 0 .68.574.99 2.368 1.267 1.3.2 2.598.57 3.154.911.213.123.482.325.816.585.574.636.8 1.254.8 2.118 0 .974-.302 1.791-.89 2.41-.861.911-2.068 1.297-4.092 1.297-2.006 0-3.26-.37-4.226-1.235a3.732 3.732 0 0 1-.63-.702c-.426-.592.134-1.083.134-1.083l.623-.617s.48-.327.849.138c.155.197.317.358.488.534.62.649 1.495.957 2.733.957 1.584 0 2.445-.448 2.445-1.265 0-.789-.755-1.208-2.596-1.438-2.068-.278-2.592-.399-3.74-1.43-.613-.55-.767-1.296-.803-2.03-.07-1.436.753-2.596 2.052-3.15.695-.294 1.585-.435 2.687-.435 1.661 0 2.974.419 3.91 1.252.135.125.24.231.34.352.535.55-.101 1.123-.101 1.123zm-17.91 3.739c-.119.352.083.64.445.64h1.71c.364 0 .565-.288.446-.64l-1.091-3.212c-.119-.353-.313-.353-.432 0l-1.078 3.212zm2.32-6.203c.367 0 .766.29.889.638l3.474 9.863c.125.35-.072.638-.437.638h-1.315c-.366 0-.761-.288-.882-.642l-.291-.865c-.117-.353-.513-.64-.878-.64h-3.144c-.362 0-.759.287-.877.64l-.292.865c-.121.354-.515.642-.881.642h-1.315c-.365 0-.563-.287-.442-.64l3.436-9.858c.124-.352.522-.64.884-.64h2.071zm-8.981 3.147l-.85.51s-.594.388-1.168-.434a2.945 2.945 0 0 0-.322-.395 2.456 2.456 0 0 0-1.84-.802c-1.646 0-2.63 1.326-2.63 3.583 0 2.24 1.013 3.538 2.78 3.538.648 0 1.238-.233 1.75-.696.194-.173.308-.343.48-.517.515-.519 1.09-.213 1.09-.213l.725.52s.724.527.293 1.202c-.141.227-.304.386-.521.599a4.185 4.185 0 0 1-.965.741c-.844.495-1.705.71-2.837.71-3.441 0-5.6-2.27-5.6-5.884 0-3.476 2.143-5.872 5.253-5.872 1.69 0 2.958.45 3.88 1.377.26.27.449.504.645.843.463.85-.163 1.19-.163 1.19z"/>
        <g transform="translate(0 22.094)">
            <mask id="b" fill="#fff">
                <use xlink:href="#a"/>
            </mask>
            <path fill="#FFF" d="M8.744.564c.364 0 .662.307.662.68v.944a.671.671 0 0 1-.662.678H6.686a.675.675 0 0 0-.662.678v7.48a.672.672 0 0 1-.662.679H4.016a.672.672 0 0 1-.664-.68v-7.48a.674.674 0 0 0-.663-.677H.662A.671.671 0 0 1 0 2.188v-.945C0 .871.297.564.662.564h8.082z" mask="url(#b)"/>
        </g>
        <path fill="#FFF" d="M13.726 22.659c.363 0 .661.306.661.678v2.984c0 .374.3.679.664.679h3.4a.672.672 0 0 0 .662-.68v-2.983c0-.372.298-.678.663-.678h1.345c.366 0 .662.306.662.678v9.78a.672.672 0 0 1-.662.68h-1.36a.673.673 0 0 1-.663-.68V29.78a.674.674 0 0 0-.664-.68H15.02a.671.671 0 0 0-.661.68v3.339a.673.673 0 0 1-.662.679h-1.331a.674.674 0 0 1-.665-.68v-9.78c0-.372.298-.678.665-.678h1.36zM32.1 22.659c.364 0 .603.299.53.663l-.14.71c-.076.365-.434.666-.798.666h-3.158a.672.672 0 0 0-.662.68v.96c0 .372.298.677.662.677h2.81c.367 0 .665.305.665.678v.682c0 .374-.298.68-.664.68h-2.811a.672.672 0 0 0-.662.677v1.347a.67.67 0 0 0 .662.677h3.28c.365 0 .722.301.793.667l.143.71c.074.364-.165.664-.53.664h-6.342a.674.674 0 0 1-.664-.68v-9.78c0-.372.3-.678.664-.678H32.1zM97.881 22.659c.366 0 .605.299.534.665l-.133.678c-.071.365-.428.666-.792.666h-3.31a.674.674 0 0 0-.662.678v1.27c0 .372.3.677.663.677h2.796c.363 0 .66.305.66.679v.667a.672.672 0 0 1-.66.678h-2.78a.674.674 0 0 0-.664.68v3.12a.672.672 0 0 1-.662.68h-1.333a.673.673 0 0 1-.662-.68v-9.78c0-.372.298-.678.662-.678h6.343zM103.947 28.267c0 2.176 1.057 3.49 2.791 3.49 1.78 0 2.822-1.314 2.822-3.537 0-2.116-1.07-3.46-2.776-3.46h-.046c-1.764.046-2.791 1.344-2.791 3.507m6.762-4.373c1.117 1.145 1.659 2.533 1.659 4.326 0 1.9-.498 3.243-1.615 4.356-1.07 1.08-2.325 1.575-3.97 1.575-1.704 0-2.986-.51-4.058-1.605-1.086-1.113-1.599-2.472-1.599-4.233 0-2.194.832-3.938 2.355-4.99.857-.601 2.034-.956 3.166-.956h.075c1.781.044 2.96.492 3.987 1.527M115.78 22.659h1.258c.714 0 .715.642.715.642v6.324c0 1.454.635 2.18 1.948 2.18 1.387 0 2.07-.726 2.07-2.224v-6.343s.014-.58.6-.58h1.397a.62.62 0 0 1 .673.57v7.14c0 2.502-1.6 3.782-4.74 3.768-1.736 0-2.881-.371-3.728-1.236-.678-.664-.874-1.296-.874-2.717v-6.831s.047-.693.68-.693M130.493 22.659c.363 0 .816.263 1.002.583l3.138 5.37c.188.32.342.276.342-.098v-5.177c0-.372.296-.678.661-.678h1.226c.364 0 .662.306.662.678v9.78a.673.673 0 0 1-.662.68h-1.587c-.366 0-.817-.263-1.002-.582l-3.352-5.77c-.187-.322-.34-.28-.34.094v5.579c0 .373-.299.679-.663.679h-1.24a.673.673 0 0 1-.663-.68v-9.78c0-.372.298-.678.663-.678h1.815zM144.057 25.476v5.401s.001.586.618.586h1.406c1.81 0 2.717-1.064 2.717-3.197 0-2.116-.877-3.306-2.446-3.306h-1.805c-.489 0-.49.516-.49.516m-1.897-2.817h4.704c2.87 0 4.725 2.224 4.725 5.668 0 3.368-1.81 5.47-4.678 5.47h-4.751c-.791 0-.79-.816-.79-.816v-9.433s-.045-.89.79-.89M157.477 28.861c-.118.352.082.641.449.641h1.708c.364 0 .564-.289.445-.64l-1.092-3.214c-.117-.352-.312-.352-.43 0l-1.08 3.213zm2.321-6.202c.366 0 .766.288.888.637l3.477 9.863c.121.35-.075.637-.438.637h-1.317c-.364 0-.76-.287-.88-.642l-.292-.863c-.117-.355-.514-.641-.878-.641h-3.143c-.364 0-.76.286-.878.64l-.292.864c-.12.355-.515.642-.88.642h-1.316c-.364 0-.563-.287-.44-.639l3.435-9.86c.12-.35.52-.638.884-.638h2.07zM174.023 22.659c.364 0 .662.306.662.678v.945a.671.671 0 0 1-.662.678h-2.057a.673.673 0 0 0-.662.678v7.48a.673.673 0 0 1-.663.679h-1.347a.673.673 0 0 1-.662-.68v-7.48c0-.37-.3-.677-.663-.677h-2.026a.673.673 0 0 1-.663-.678v-.945c0-.372.3-.678.663-.678h8.08zM179.642 22.659c.365 0 .663.306.663.678v9.78a.673.673 0 0 1-.663.68h-1.33a.673.673 0 0 1-.662-.68v-9.78c0-.372.298-.678.662-.678h1.33zM186.522 28.267c0 2.176 1.056 3.49 2.792 3.49 1.78 0 2.82-1.314 2.82-3.537 0-2.116-1.07-3.46-2.775-3.46h-.045c-1.767.046-2.792 1.344-2.792 3.507m6.762-4.373c1.118 1.145 1.66 2.533 1.66 4.326 0 1.9-.499 3.243-1.615 4.356-1.071 1.08-2.325 1.575-3.97 1.575-1.706 0-2.989-.51-4.06-1.605-1.087-1.113-1.601-2.472-1.601-4.233 0-2.194.831-3.938 2.356-4.99.86-.601 2.037-.956 3.17-.956h.076c1.78.044 2.958.492 3.984 1.527"/>
        <g transform="translate(197.428 22.094)">
            <mask id="d" fill="#fff">
                <use xlink:href="#c"/>
            </mask>
            <path fill="#FFF" d="M2.728.564c.498 0 .747.168 1.004.583l3.137 5.37c.19.321.341.276.341-.097V1.243c0-.372.3-.679.664-.679H9.1c.363 0 .662.307.662.68v9.78c0 .373-.3.679-.662.679H7.51c-.364 0-.816-.263-1.001-.583L3.157 5.35c-.186-.321-.34-.279-.34.094v5.58a.673.673 0 0 1-.662.679H.915a.673.673 0 0 1-.663-.68v-9.78c0-.372.299-.679.663-.679h1.813z" mask="url(#d)"/>
        </g>
    </g>
</svg>
